HIERARCHY
ROOT Hips
{
  OFFSET 5.84602e-005 68.8428 3.50346
  CHANNELS 6 Xposition Yposition Zposition Zrotation Xrotation Yrotation
  JOINT Spine
  {
    OFFSET 0 8.597 -4.6522
    CHANNELS 3 Zrotation Xrotation Yrotation
    JOINT Spine1
    {
      OFFSET 0 7.8454 0.4098
      CHANNELS 3 Zrotation Xrotation Yrotation
      JOINT Spine2
      {
        OFFSET 0 9.7078 -2.1609
        CHANNELS 3 Zrotation Xrotation Yrotation
        JOINT Neck
        {
          OFFSET 0 21.8761 -0.4549
          CHANNELS 3 Zrotation Xrotation Yrotation
          JOINT Head
          {
            OFFSET 0 12.3537 3.3602
            CHANNELS 3 Zrotation Xrotation Yrotation
            End Site
            {
              OFFSET 0.0001 18.9506 0.5657
            }
          }
        }
        JOINT LeftShoulder
        {
          OFFSET 2.2086 21.1115 7.2329
          CHANNELS 3 Zrotation Xrotation Yrotation
          JOINT LeftArm
          {
            OFFSET 13.1193 3.0282 -4.8998
            CHANNELS 3 Zrotation Xrotation Yrotation
            JOINT LeftForeArm
            {
              OFFSET 27.4081 -0.0973053 -0.2375
              CHANNELS 3 Zrotation Xrotation Yrotation
              JOINT LeftHand
              {
                OFFSET 22.8641 0.0662994 -0.1369
                CHANNELS 3 Zrotation Xrotation Yrotation
                JOINT LeftHandIndex1
                {
                  OFFSET 8.8614 0.775009 2.4612
                  CHANNELS 3 Zrotation Xrotation Yrotation
                  JOINT LeftHandIndex2
                  {
                    OFFSET 3.3146 -0.808304 0.5841
                    CHANNELS 3 Zrotation Xrotation Yrotation
                    JOINT LeftHandIndex3
                    {
                      OFFSET 2.2628 -0.552002 0.3989
                      CHANNELS 3 Zrotation Xrotation Yrotation
                      End Site
                      {
                        OFFSET 1.6102 -0.4807 0.2612
                      }
                    }
                  }
                }
                JOINT LeftHandMiddle1
                {
                  OFFSET 8.9937 0.895004 0.2143
                  CHANNELS 3 Zrotation Xrotation Yrotation
                  JOINT LeftHandMiddle2
                  {
                    OFFSET 4.0984 0.0113983 -0.0242
                    CHANNELS 3 Zrotation Xrotation Yrotation
                    JOINT LeftHandMiddle3
                    {
                      OFFSET 2.2716 0.00689697 -0.0138001
                      CHANNELS 3 Zrotation Xrotation Yrotation
                      End Site
                      {
                        OFFSET 2.0404 -0.1441 0.0027
                      }
                    }
                  }
                }
                JOINT LeftHandRing1
                {
                  OFFSET 8.5234 0.597198 -2.0164
                  CHANNELS 3 Zrotation Xrotation Yrotation
                  JOINT LeftHandRing2
                  {
                    OFFSET 3.7188 -0.188293 -0.2328
                    CHANNELS 3 Zrotation Xrotation Yrotation
                    JOINT LeftHandRing3
                    {
                      OFFSET 2.1191 -0.106598 -0.1332
                      CHANNELS 3 Zrotation Xrotation Yrotation
                      End Site
                      {
                        OFFSET 1.8737 -0.2304 -0.0886
                      }
                    }
                  }
                }
                JOINT LeftHandPinky1
                {
                  OFFSET 7.9094 -0.601089 -3.4825
                  CHANNELS 3 Zrotation Xrotation Yrotation
                  JOINT LeftHandPinky2
                  {
                    OFFSET 2.2874 -0.477005 -0.6314
                    CHANNELS 3 Zrotation Xrotation Yrotation
                    JOINT LeftHandPinky3
                    {
                      OFFSET 1.6774 -0.349396 -0.4633
                      CHANNELS 3 Zrotation Xrotation Yrotation
                      End Site
                      {
                        OFFSET 1.4888 -0.4091 -0.3416
                      }
                    }
                  }
                }
                JOINT LeftHandThumb1
                {
                  OFFSET 1.833 -1.3875 1.3896
                  CHANNELS 3 Zrotation Xrotation Yrotation
                  JOINT LeftHandThumb2
                  {
                    OFFSET 3.4129 -1.121 2.5732
                    CHANNELS 3 Zrotation Xrotation Yrotation
                    JOINT LeftHandThumb3
                    {
                      OFFSET 2.2474 -0.804199 1.6192
                      CHANNELS 3 Zrotation Xrotation Yrotation
                      End Site
                      {
                        OFFSET 1.6527 -0.5689 1.1317
                      }
                    }
                  }
                }
              }
            }
          }
        }
        JOINT RightShoulder
        {
          OFFSET -2.2086 21.1115 7.2329
          CHANNELS 3 Zrotation Xrotation Yrotation
          JOINT RightArm
          {
            OFFSET -13.1216 3.0287 -4.9007
            CHANNELS 3 Zrotation Xrotation Yrotation
            JOINT RightForeArm
            {
              OFFSET -27.4081 -0.0973053 -0.2375
              CHANNELS 3 Zrotation Xrotation Yrotation
              JOINT RightHand
              {
                OFFSET -22.8641 0.0664063 -0.1369
                CHANNELS 3 Zrotation Xrotation Yrotation
                JOINT RightHandIndex1
                {
                  OFFSET -8.8614 0.774994 2.4612
                  CHANNELS 3 Zrotation Xrotation Yrotation
                  JOINT RightHandIndex2
                  {
                    OFFSET -3.3146 -0.808304 0.5841
                    CHANNELS 3 Zrotation Xrotation Yrotation
                    JOINT RightHandIndex3
                    {
                      OFFSET -2.2628 -0.552002 0.3989
                      CHANNELS 3 Zrotation Xrotation Yrotation
                      End Site
                      {
                        OFFSET -1.6102 -0.4807 0.2612
                      }
                    }
                  }
                }
                JOINT RightHandMiddle1
                {
                  OFFSET -8.9937 0.894989 0.2143
                  CHANNELS 3 Zrotation Xrotation Yrotation
                  JOINT RightHandMiddle2
                  {
                    OFFSET -4.0984 0.0113983 -0.0242
                    CHANNELS 3 Zrotation Xrotation Yrotation
                    JOINT RightHandMiddle3
                    {
                      OFFSET -2.2716 0.00691223 -0.0138001
                      CHANNELS 3 Zrotation Xrotation Yrotation
                      End Site
                      {
                        OFFSET -2.0404 -0.1441 0.0027
                      }
                    }
                  }
                }
                JOINT RightHandRing1
                {
                  OFFSET -8.5234 0.597198 -2.0164
                  CHANNELS 3 Zrotation Xrotation Yrotation
                  JOINT RightHandRing2
                  {
                    OFFSET -3.7188 -0.188309 -0.2328
                    CHANNELS 3 Zrotation Xrotation Yrotation
                    JOINT RightHandRing3
                    {
                      OFFSET -2.1191 -0.106598 -0.1332
                      CHANNELS 3 Zrotation Xrotation Yrotation
                      End Site
                      {
                        OFFSET -1.8737 -0.2304 -0.0886
                      }
                    }
                  }
                }
                JOINT RightHandPinky1
                {
                  OFFSET -7.9094 -0.601105 -3.4825
                  CHANNELS 3 Zrotation Xrotation Yrotation
                  JOINT RightHandPinky2
                  {
                    OFFSET -2.2874 -0.477005 -0.6314
                    CHANNELS 3 Zrotation Xrotation Yrotation
                    JOINT RightHandPinky3
                    {
                      OFFSET -1.6774 -0.349396 -0.4633
                      CHANNELS 3 Zrotation Xrotation Yrotation
                      End Site
                      {
                        OFFSET -1.4888 -0.4091 -0.3416
                      }
                    }
                  }
                }
                JOINT RightHandThumb1
                {
                  OFFSET -1.833 -1.38751 1.3896
                  CHANNELS 3 Zrotation Xrotation Yrotation
                  JOINT RightHandThumb2
                  {
                    OFFSET -3.41299 -1.12099 2.5732
                    CHANNELS 3 Zrotation Xrotation Yrotation
                    JOINT RightHandThumb3
                    {
                      OFFSET -2.24741 -0.804108 1.6192
                      CHANNELS 3 Zrotation Xrotation Yrotation
                      End Site
                      {
                        OFFSET -1.6527 -0.5689 1.1317
                      }
                    }
                  }
                }
              }
            }
          }
        }
      }
    }
  }
  JOINT RightUpLeg
  {
    OFFSET -9.1966 3.8861 -0.7581
    CHANNELS 3 Zrotation Xrotation Yrotation
    JOINT RightLeg
    {
      OFFSET -0.7359 -41.0265 0
      CHANNELS 3 Zrotation Xrotation Yrotation
      JOINT RightFoot
      {
        OFFSET 0 -40.2855 0
        CHANNELS 3 Zrotation Xrotation Yrotation
        JOINT RightToeBase
        {
          OFFSET 0 -5.6122 11.7359
          CHANNELS 3 Zrotation Xrotation Yrotation
          End Site
          {
            OFFSET 0 0 7.8731
          }
        }
      }
    }
  }
  JOINT LeftUpLeg
  {
    OFFSET 9.1965 3.8864 -0.7581
    CHANNELS 3 Zrotation Xrotation Yrotation
    JOINT LeftLeg
    {
      OFFSET 0.7359 -41.0268 0
      CHANNELS 3 Zrotation Xrotation Yrotation
      JOINT LeftFoot
      {
        OFFSET 0 -40.2855 0
        CHANNELS 3 Zrotation Xrotation Yrotation
        JOINT LeftToeBase
        {
          OFFSET 0 -5.6122 11.7359
          CHANNELS 3 Zrotation Xrotation Yrotation
          End Site
          {
            OFFSET 0 0 7.8731
          }
        }
      }
    }
  }
}
MOTION
Frames:	6
Frame Time:	0.0333333
22.2035 -4.70206 8.78831 105.415 -4.35275 164.598 1.39203e-005 20.7994 -4.55428e-006 -6.87378e-006 41.5988 -1.92457e-005 1.46417e-005 41.5988 3.2593e-006 -0.000105673 30.9991 5.63598e-005 -1.73403e-006 -35.0004 -3.66236e-006 -1.61063e-005 -2.57399e-006 -5.68393e-006 -46.0183 -0.993232 -91.748 -15.4753 13.7574 -145.014 43.975 29.7501 8.06817 -2.39061e-006 2.29543e-006 1.14356e-006 1.12113e-006 -1.12461e-006 -5.49105e-007 -1.12113e-006 1.12461e-006 5.49105e-007 -2.39061e-006 2.29543e-006 1.14356e-006 -0.0146168 -8.73567e-005 2.84874e-006 -1.12117e-006 1.12454e-006 5.49249e-007 -2.39061e-006 2.29543e-006 1.14356e-006 -0.0187668 -0.00117607 5.85601e-005 -1.12118e-006 1.12451e-006 5.49301e-007 -2.39061e-006 2.29543e-006 1.14356e-006 -0.0122483 -0.00324228 0.000674866 -1.26837e-006 1.17106e-006 5.94553e-007 -2.39061e-006 2.29543e-006 1.14356e-006 1.12113e-006 -1.12461e-006 -5.49105e-007 -1.12113e-006 1.12461e-006 5.49105e-007 8.25995 3.72199 17.8076 47.9638 17.0887 57.8223 5.00094 1.00374 -0.154617 41.339 0.936493 -20.0038 9.11066e-007 -1.13531e-006 8.78665e-007 4.41391e-031 7.95139e-015 -3.18055e-015 -4.55533e-007 5.67655e-007 -4.39332e-007 9.11066e-007 -1.13531e-006 8.78665e-007 0.01505 -8.93733e-005 -4.75676e-006 -4.55544e-007 5.67597e-007 -4.39407e-007 9.11066e-007 -1.13531e-006 8.78665e-007 0.0190017 -0.00118558 -6.1003e-005 7.42126e-007 6.36256e-007 -1.14715e-006 9.11066e-007 -1.13531e-006 8.78665e-007 0.0122711 -0.0032498 -0.000672003 -4.55557e-007 5.67607e-007 -4.3938e-007 9.11066e-007 -1.13531e-006 8.78665e-007 4.41391e-031 7.95139e-015 -3.18055e-015 -4.55533e-007 5.67655e-007 -4.39332e-007 -71.9668 -28.2074 -40.5066 -179.666 43.1594 173.406 -2.44232 17.446 -4.03507 2.18448e-006 -1.69595e-007 2.74927e-006 9.63499 18.9605 22.6022 -9.58529 56.8511 9.18341 1.78885 -0.386328 0.0287792 -3.31043e-032 4.77083e-015 3.97569e-016 
22.2017 -4.69921 9.073 105.415 -4.35275 164.598 1.39203e-005 20.7994 -4.55428e-006 -6.87378e-006 41.5988 -1.92457e-005 1.46417e-005 41.5988 3.2593e-006 -0.000105673 30.9991 5.63598e-005 -1.73403e-006 -35.0004 -3.66236e-006 -1.61063e-005 -2.57399e-006 -5.68393e-006 -46.0183 -0.993232 -91.748 -15.4753 13.7574 -145.014 43.975 29.7501 8.06817 -2.39061e-006 2.29543e-006 1.14356e-006 1.12113e-006 -1.12461e-006 -5.49105e-007 -1.12113e-006 1.12461e-006 5.49105e-007 -2.39061e-006 2.29543e-006 1.14356e-006 -0.0146168 -8.73567e-005 2.84874e-006 -1.12117e-006 1.12454e-006 5.49249e-007 -2.39061e-006 2.29543e-006 1.14356e-006 -0.0187668 -0.00117607 5.85601e-005 -1.12118e-006 1.12451e-006 5.49301e-007 -2.39061e-006 2.29543e-006 1.14356e-006 -0.0122483 -0.00324228 0.000674866 -1.26837e-006 1.17106e-006 5.94553e-007 -2.39061e-006 2.29543e-006 1.14356e-006 1.12113e-006 -1.12461e-006 -5.49105e-007 -1.12113e-006 1.12461e-006 5.49105e-007 8.25995 3.72199 17.8076 47.9638 17.0887 57.8223 5.00106 1.00089 -0.154602 41.339 0.936502 -20.0038 3.18055e-015 -1.59028e-015 -6.36111e-015 4.55532e-007 -5.67661e-007 4.3933e-007 -3.18055e-015 4.77083e-015 9.54166e-015 3.18055e-015 -1.59028e-015 -6.36111e-015 0.0149928 -9.29569e-005 -2.57502e-006 1.198e-006 6.87606e-008 -7.07939e-007 3.18055e-015 -1.59028e-015 -6.36111e-015 0.0189744 -0.00119251 -6.74835e-005 1.19758e-006 6.88496e-008 -7.07947e-007 3.18055e-015 -1.59028e-015 -6.36111e-015 0.0122808 -0.00325333 -0.000683847 2.64834e-031 4.77083e-015 -3.18055e-015 3.18055e-015 -1.59028e-015 -6.36111e-015 4.55532e-007 -5.67661e-007 4.3933e-007 -3.18055e-015 4.77083e-015 9.54166e-015 -71.5812 -28.4371 -40.1084 179.966 43.0628 173.402 -2.44456 17.4459 -4.03895 -3.914e-007 1.12655e-007 1.26135e-007 10.05 18.3741 22.192 -9.793 57.7145 9.4693 1.77976 -0.374001 0.0285438 -2.99979e-006 -1.70383e-007 3.76694e-006 
22.1999 -4.69637 9.3577 105.415 -4.35275 164.598 1.39203e-005 20.7994 -4.55428e-006 -6.87378e-006 41.5988 -1.92457e-005 1.46417e-005 41.5988 3.2593e-006 -0.000105673 30.9991 5.63598e-005 -1.73403e-006 -35.0004 -3.66236e-006 -1.61063e-005 -2.57399e-006 -5.68393e-006 -46.0183 -0.993232 -91.748 -15.4753 13.7574 -145.014 43.975 29.7501 8.06817 -2.39061e-006 2.29543e-006 1.14356e-006 1.12113e-006 -1.12461e-006 -5.49105e-007 -1.12113e-006 1.12461e-006 5.49105e-007 -2.39061e-006 2.29543e-006 1.14356e-006 -0.0146168 -8.73567e-005 2.84874e-006 -1.12117e-006 1.12454e-006 5.49249e-007 -2.39061e-006 2.29543e-006 1.14356e-006 -0.0187668 -0.00117607 5.85601e-005 -1.12118e-006 1.12451e-006 5.49301e-007 -2.39061e-006 2.29543e-006 1.14356e-006 -0.0122483 -0.00324228 0.000674866 -1.26837e-006 1.17106e-006 5.94553e-007 -2.39061e-006 2.29543e-006 1.14356e-006 1.12113e-006 -1.12461e-006 -5.49105e-007 -1.12113e-006 1.12461e-006 5.49105e-007 8.25995 3.72199 17.8076 47.9638 17.0887 57.8223 5.00112 0.998023 -0.154596 41.339 0.936493 -20.0038 3.18055e-015 -3.18055e-015 -6.36111e-015 -3.18055e-015 -4.77083e-015 -9.54166e-015 7.06225e-031 -6.36111e-015 6.36111e-015 3.18055e-015 -3.18055e-015 -6.36111e-015 0.0149788 -9.3496e-005 -4.01103e-007 1.76556e-031 -1.59028e-015 6.36111e-015 3.18055e-015 -3.18055e-015 -6.36111e-015 0.0190324 -0.001197 -6.06221e-005 1.76556e-031 -3.18055e-015 3.18055e-015 3.18055e-015 -3.18055e-015 -6.36111e-015 0.0121935 -0.00322709 -0.000663634 -6.36111e-015 -4.77083e-015 -3.18055e-015 3.18055e-015 -3.18055e-015 -6.36111e-015 -3.18055e-015 -4.77083e-015 -9.54166e-015 7.06225e-031 -6.36111e-015 6.36111e-015 -71.4418 -28.3553 -39.8291 179.966 43.0627 173.396 -2.44681 17.4458 -4.0428 5.60069e-007 -6.11209e-007 -3.63732e-006 10.4595 17.7841 21.7876 -10.0145 58.5789 9.7688 1.77108 -0.36226 0.0283508 -3.00695e-006 -1.60133e-007 3.76237e-006 
22.1981 -4.69355 9.64242 105.415 -4.35275 164.598 1.39203e-005 20.7994 -4.55428e-006 -6.87378e-006 41.5988 -1.92457e-005 1.46417e-005 41.5988 3.2593e-006 -0.000105673 30.9991 5.63598e-005 -1.73403e-006 -35.0004 -3.66236e-006 -1.61063e-005 -2.57399e-006 -5.68393e-006 -46.0183 -0.993232 -91.748 -15.4753 13.7574 -145.014 43.975 29.7501 8.06817 -2.39061e-006 2.29543e-006 1.14356e-006 1.12113e-006 -1.12461e-006 -5.49105e-007 -1.12113e-006 1.12461e-006 5.49105e-007 -2.39061e-006 2.29543e-006 1.14356e-006 -0.0146168 -8.73567e-005 2.84874e-006 -1.12117e-006 1.12454e-006 5.49249e-007 -2.39061e-006 2.29543e-006 1.14356e-006 -0.0187668 -0.00117607 5.85601e-005 -1.12118e-006 1.12451e-006 5.49301e-007 -2.39061e-006 2.29543e-006 1.14356e-006 -0.0122483 -0.00324228 0.000674866 -1.26837e-006 1.17106e-006 5.94553e-007 -2.39061e-006 2.29543e-006 1.14356e-006 1.12113e-006 -1.12461e-006 -5.49105e-007 -1.12113e-006 1.12461e-006 5.49105e-007 8.25995 3.72199 17.8076 47.9638 17.0887 57.8223 5.00113 0.995166 -0.154599 41.339 0.936493 -20.0038 -2.88306e-007 -1.20456e-006 1.58701e-006 8.82781e-031 -7.95139e-015 6.36111e-015 7.43836e-007 6.36883e-007 -1.14769e-006 -2.88306e-007 -1.20456e-006 1.58701e-006 0.0149719 -9.79453e-005 1.64374e-006 -1.65337e-006 4.98488e-007 2.68974e-007 -2.88306e-007 -1.20456e-006 1.58701e-006 0.0190183 -0.00119761 -5.85126e-005 -4.55547e-007 5.676e-007 -4.39413e-007 -2.88306e-007 -1.20456e-006 1.58701e-006 0.012233 -0.00323911 -0.000668338 -4.55554e-007 5.67625e-007 -4.39371e-007 -2.88306e-007 -1.20456e-006 1.58701e-006 8.82781e-031 -7.95139e-015 6.36111e-015 7.43836e-007 6.36883e-007 -1.14769e-006 -71.303 -28.273 -39.5503 179.966 43.0625 173.39 -2.44905 17.4459 -4.04666 3.92069e-007 -1.11097e-007 -1.25582e-007 10.8635 17.1909 21.3892 -10.2509 59.4439 10.0829 1.76274 -0.351007 0.0281305 -2.70118e-006 3.60801e-006 3.9075e-006 
22.1963 -4.69075 9.92715 105.415 -4.35275 164.598 1.39203e-005 20.7994 -4.55428e-006 -6.87378e-006 41.5988 -1.92457e-005 1.46417e-005 41.5988 3.2593e-006 -0.000105673 30.9991 5.63598e-005 -1.73403e-006 -35.0004 -3.66236e-006 -1.61063e-005 -2.57399e-006 -5.68393e-006 -46.0183 -0.993232 -91.748 -15.4753 13.7574 -145.014 43.975 29.7501 8.06817 -2.39061e-006 2.29543e-006 1.14356e-006 1.12113e-006 -1.12461e-006 -5.49105e-007 -1.12113e-006 1.12461e-006 5.49105e-007 -2.39061e-006 2.29543e-006 1.14356e-006 -0.0146168 -8.73567e-005 2.84874e-006 -1.12117e-006 1.12454e-006 5.49249e-007 -2.39061e-006 2.29543e-006 1.14356e-006 -0.0187668 -0.00117607 5.85601e-005 -1.12118e-006 1.12451e-006 5.49301e-007 -2.39061e-006 2.29543e-006 1.14356e-006 -0.0122483 -0.00324228 0.000674866 -1.26837e-006 1.17106e-006 5.94553e-007 -2.39061e-006 2.29543e-006 1.14356e-006 1.12113e-006 -1.12461e-006 -5.49105e-007 -1.12113e-006 1.12461e-006 5.49105e-007 8.25995 3.72199 17.8076 47.9638 17.0887 57.8223 5.00111 0.992308 -0.154575 41.339 0.9365 -20.0038 4.55528e-007 -5.67679e-007 4.39321e-007 -4.55528e-007 5.67679e-007 -4.39321e-007 -9.11057e-007 1.13536e-006 -8.78641e-007 4.55528e-007 -5.67679e-007 4.39321e-007 0.0149595 -8.92408e-005 -1.73565e-006 -2.10882e-006 1.06593e-006 -1.702e-007 4.55528e-007 -5.67679e-007 4.39321e-007 0.0190327 -0.00120353 -7.12374e-005 -9.11093e-007 1.13521e-006 -8.7882e-007 4.55528e-007 -5.67679e-007 4.39321e-007 0.0122241 -0.0032349 -0.000668135 2.86903e-007 1.20492e-006 -1.58729e-006 4.55528e-007 -5.67679e-007 4.39321e-007 -4.55528e-007 5.67679e-007 -4.39321e-007 -9.11057e-007 1.13536e-006 -8.78641e-007 -71.3307 -27.9787 -39.3513 -179.786 43.133 173.381 -2.45128 17.4459 -4.05053 4.9014e-007 3.24952e-006 -3.1394e-008 11.262 16.5943 20.9966 -10.5035 60.3095 10.4131 1.75476 -0.340336 0.0279506 -2.24678e-006 3.43099e-007 2.2781e-006 
22.1946 -4.68795 10.2119 105.415 -4.35275 164.598 1.39203e-005 20.7994 -4.55428e-006 -6.87378e-006 41.5988 -1.92457e-005 1.46417e-005 41.5988 3.2593e-006 -0.000105673 30.9991 5.63598e-005 -1.73403e-006 -35.0004 -3.66236e-006 -1.61063e-005 -2.57399e-006 -5.68393e-006 -46.0183 -0.993228 -91.748 -15.4753 13.7575 -145.014 43.975 29.7501 8.06816 -2.39061e-006 2.29544e-006 1.14356e-006 -3.22201e-006 -1.16389e-006 1.1121e-006 -1.12113e-006 1.12461e-006 5.49105e-007 -2.39061e-006 2.29544e-006 1.14356e-006 -0.0146143 -9.07243e-005 6.75372e-006 -1.26818e-006 1.17076e-006 5.94601e-007 -2.39061e-006 2.29544e-006 1.14356e-006 -0.0187645 -0.0011749 6.30013e-005 -1.12118e-006 1.12451e-006 5.49301e-007 -2.39061e-006 2.29544e-006 1.14356e-006 -0.0122504 -0.0032411 0.000681013 -1.26837e-006 1.17106e-006 5.94552e-007 -2.39061e-006 2.29544e-006 1.14356e-006 -3.22201e-006 -1.16389e-006 1.1121e-006 -1.12113e-006 1.12461e-006 5.49105e-007 8.25995 3.72199 17.8076 47.9638 17.0887 57.8223 5.00102 0.989445 -0.154573 41.339 0.936496 -20.0038 -3.18055e-015 -1.59028e-015 9.54166e-015 4.55527e-007 -5.67685e-007 4.39317e-007 -3.18055e-015 -4.77083e-015 -6.36111e-015 -3.18055e-015 -1.59028e-015 9.54166e-015 0.0149999 -9.19399e-005 -2.3963e-006 -7.06225e-031 -6.36111e-015 -6.36111e-015 -3.18055e-015 -1.59028e-015 9.54166e-015 0.0190476 -0.00119344 -6.13653e-005 3.18055e-015 -1.59028e-015 -0 -3.18055e-015 -1.59028e-015 9.54166e-015 0.0122989 -0.00325068 -0.000676333 6.36111e-015 6.36111e-015 3.18055e-015 -3.18055e-015 -1.59028e-015 9.54166e-015 4.55527e-007 -5.67685e-007 4.39317e-007 -3.18055e-015 -4.77083e-015 -6.36111e-015 -71.0296 -28.1036 -38.9951 179.969 43.0629 173.377 -2.45351 17.4461 -4.05437 -1.38844e-006 1.42636e-006 -1.04232e-006 11.6552 15.9948 20.6098 -10.7735 61.1752 10.7605 1.74711 -0.330123 0.0277772 -2.17587e-006 1.31179e-006 3.41023e-006 
